# xmcd
#
# Track frame offsets: 
#        150
#        13597
#        27060
#        39430
#        54210
#        66260
#        78895
#        92055
#        105007
#        118217
#        131477
#        143812
#        157137
#        170957
#        186057
#        201640
#        218055
#        230782
#        243105
#        255735
#
# Disc length: 3574 seconds
#
# Revision: 2
# Processed by: cddbd v1.5.2PL0 Copyright (c) Steve Scherf et al.
# Submitted via: ExactAudioCopy v0.99pb5
#
DISCID=140df414
DTITLE=Various Artist - Texas and Tennessee Territory Bands: 1928-1931
DYEAR=1997
DGENRE=Jazz
TTITLE0=Blue Steele and His Orchestra - Sugar Babe, I'm Leavin'
TTITLE1=Slim Lamar and His Southerners - Happy
TTITLE2=Slim Lamar and His Southerners - Goofus
TTITLE3=Mart Britt and His Orchestra - Sadness Will Be Gladness
TTITLE4=Mart Britt and His Orchestra - Goose Creek
TTITLE5=Slim Lamar and His Southerners - Better than Nothin'
TTITLE6=Slim Lamar and His Southerners - That's a Plenty
TTITLE7=Slim Lamar and His Southerners - Mississippi Stomp
TTITLE8=Slim Lamar and His Southerners - Memphis Kick-Up
TTITLE9=Slim Lamar and His Southerners - You Never Did That Before
TTITLE10=Sunny Clapp and His Band O' Sunshine - Down the Biscane River
TTITLE11=Sunny Clapp and His Band O' Sunshine - We Can't Use Each Other 
TTITLE11=Anymore
TTITLE12=Phil Baxter and His Orchestra - Down Where the Blues Bonnets Gr
TTITLE12=ow
TTITLE13=Phil Baxter and His Orchestra - I Ain't Got No Gal Now
TTITLE14=Phil Baxter and His Orchestra - I Don't Love Nobody But You
TTITLE15=Phil Baxter and His Orchestra - Honey Child
TTITLE16=Blue Steele and His Orchestra - All Muggled Up
TTITLE17=Blue Steele and His Orchestra - Shooin' Flies
TTITLE18=Sunny Clapp and His Band O' Sunshine - Come Easy, Go Easy Love
TTITLE19=Sunny Clapp and His Band O' Sunshine - When I Can't Be With You
EXTD=
EXTT0=
EXTT1=
EXTT2=
EXTT3=
EXTT4=
EXTT5=
EXTT6=
EXTT7=
EXTT8=
EXTT9=
EXTT10=
EXTT11=
EXTT12=
EXTT13=
EXTT14=
EXTT15=
EXTT16=
EXTT17=
EXTT18=
EXTT19=
PLAYORDER=
